<svg xmlns="http://www.w3.org/2000/svg"  viewBox="0 0 48 48" width="48px" height="48px"><path fill="#ed2224" d="M35.07,8.234c-0.011-1.461-0.034-2.922-0.125-4.394c-0.045-0.849-0.262-1.397-0.364-2.256 c-1.547-0.032-3.413,0.043-4.972,0c-1.149-0.032-2.89,0.108-4.039,0.247c-1.638,0.204-3.22,0.752-4.711,1.429 c-2.492,1.15-4.87,2.782-6.121,5.113c-1.217,2.267-1.229,4.909-1.229,7.455c0.011,1.354,0.011,2.718,0.319,4.039 c0.774,3.287,3.311,5.93,5.894,8.25C16.41,33.78,13.076,40.87,10.345,46.8c1.957,0.118,3.914,0.247,5.882,0.376 c0.284,0.01,0.614,0.032,0.853-0.129c0.205-0.129,0.307-0.344,0.41-0.559c2.412-4.942,4.813-9.883,7.214-14.825 c0.239-0.483,0.489-0.977,0.899-1.354c0.944-0.849,2.424-0.752,3.721-0.612c-0.102,5.371-0.193,10.753-0.284,16.135 c-0.011,0.312,0,0.666,0.262,0.859c0.182,0.151,0.444,0.161,0.683,0.172c1.638,0.065,3.288,0.118,4.927,0.183 c0.137,0.011,0.296,0.011,0.41-0.065c0.193-0.118,0.217-0.376,0.205-0.58C34.807,33.99,35.217,20.953,35.07,8.234z M28.766,24.111 c0,0.118-0.011,0.258-0.091,0.355c-0.068,0.086-0.182,0.118-0.284,0.151c-2.628,0.741-5.552-0.688-7.089-2.836 c-1.525-2.159-1.9-4.866-1.855-7.455c0.034-1.815,0.319-3.76,1.616-5.103c0.717-0.731,1.661-1.214,2.628-1.59 c1.673-0.666,3.595-0.967,5.405-1.107C28.948,12.348,28.925,18.278,28.766,24.111z"/><path fill="#010101" d="M35.959,45.214c-0.054-1.034-0.1-2.069-0.14-3.104c-0.082-2.13-0.136-4.26-0.172-6.391 c-0.073-4.312-0.07-8.625-0.059-12.938c0.012-4.849,0.036-9.698-0.019-14.546c-0.01-1.22-0.027-2.44-0.085-3.659 c-0.051-1.068-0.28-2.069-0.422-3.124c-0.029-0.216-0.284-0.364-0.482-0.367c-2.933-0.052-5.927-0.118-8.843,0.227 c-2.902,0.344-5.816,1.556-8.18,3.27c-2.377,1.722-3.897,4.035-4.329,6.958c-0.227,1.537-0.231,3.098-0.216,4.648 c0.015,1.607,0.075,3.23,0.61,4.762c1.021,2.923,3.221,5.221,5.471,7.27c-3.423,5.915-6.322,12.125-9.179,18.328 c-0.162,0.352,0.031,0.728,0.432,0.752c1.306,0.079,2.612,0.162,3.917,0.247c0.654,0.043,1.31,0.104,1.965,0.129 c0.431,0.016,0.853-0.002,1.207-0.276c0.414-0.32,0.595-0.879,0.817-1.334c0.292-0.599,0.584-1.198,0.876-1.797 c0.584-1.198,1.167-2.396,1.75-3.594c1.166-2.395,2.33-4.792,3.494-7.188c0.473-0.974,0.912-2.5,1.919-3.055 c0.745-0.411,1.673-0.371,2.525-0.288c-0.08,4.235-0.154,8.471-0.226,12.707c-0.018,1.042-0.088,2.098-0.053,3.139 c0.025,0.755,0.411,1.256,1.175,1.351c1.018,0.126,2.08,0.09,3.106,0.126c0.534,0.019,1.068,0.039,1.602,0.059 c0.358,0.014,0.762,0.084,1.094-0.089C36.283,47.039,35.995,45.899,35.959,45.214z M34.664,46.537 c-0.246-0.009-0.492-0.019-0.738-0.028c-0.493-0.018-0.986-0.036-1.479-0.054c-0.493-0.018-0.986-0.035-1.479-0.054 c-0.328-0.012-1.224,0.119-1.418-0.228c-0.158-0.282,0.001-1.018,0.006-1.335c0.008-0.497,0.017-0.994,0.025-1.49 c0.077-4.55,0.156-9.101,0.242-13.651c0.006-0.291-0.235-0.472-0.5-0.5c-0.962-0.101-1.992-0.192-2.93,0.113 c-0.981,0.319-1.573,1.024-2.031,1.919c-1.206,2.356-2.317,4.765-3.474,7.145c-1.166,2.397-2.332,4.793-3.501,7.188 c-0.126,0.258-0.23,0.609-0.407,0.834c-0.223,0.284-0.404,0.293-0.753,0.28c-0.655-0.024-1.311-0.086-1.965-0.129 c-1.053-0.069-2.106-0.135-3.159-0.2c2.808-6.09,5.667-12.181,9.049-17.977c0.107-0.183,0.085-0.459-0.078-0.606 c-1.966-1.772-3.925-3.692-5.086-6.109c-0.667-1.387-0.909-2.864-0.958-4.392c-0.047-1.461-0.055-2.939,0.052-4.397 c0.107-1.461,0.389-2.938,1.087-4.241c0.616-1.151,1.523-2.118,2.546-2.92c2.207-1.729,5.071-3.006,7.854-3.374 c1.367-0.181,2.763-0.274,4.142-0.245c1.481,0.031,2.961-0.014,4.442-0.002c0.136,0.914,0.302,1.799,0.343,2.735 c0.049,1.137,0.065,2.276,0.074,3.414c0.09,7.905-0.031,15.811,0.033,23.716c0.031,3.866,0.106,7.732,0.277,11.595 c0.021,0.477,0.044,0.954,0.068,1.431c0.012,0.238,0.025,0.476,0.037,0.714c0.01,0.179,0.096,0.544,0.04,0.712 c0.009,0.05,0.018,0.1,0.027,0.149C34.923,46.547,34.794,46.543,34.664,46.537z"/><path fill="#010101" d="M29.096,6.026c-2.387,0.193-4.86,0.597-6.975,1.786c-1.939,1.09-2.832,2.943-3.083,5.092 c-0.491,4.202,0.48,9.277,4.479,11.485c0.965,0.533,2.044,0.866,3.147,0.919c0.558,0.027,1.137-0.023,1.68-0.161 c0.581-0.148,0.871-0.425,0.922-1.034c0.158-5.861,0.183-11.724,0.33-17.585C29.602,6.272,29.361,6.005,29.096,6.026z M27.212,24.307c-0.443,0.022-0.888-0.008-1.323-0.095c-0.84-0.169-1.629-0.507-2.346-0.974c-1.557-1.014-2.552-2.601-3.072-4.362 c-0.52-1.763-0.622-3.671-0.48-5.497c0.146-1.87,0.784-3.595,2.456-4.6c1.83-1.1,4.028-1.506,6.139-1.706 c-0.135,5.679-0.167,11.36-0.32,17.038C28.255,24.247,27.351,24.3,27.212,24.307z"/></svg>